<svg xmlns="http://www.w3.org/2000/svg" width="816" height="1056">
    <defs>
        <linearGradient id="grad1" x1="0%" y1="0%" x2="0%" y2="100%">
            <stop offset="0%" style="stop-color:rgb(249,223,202);stop-opacity:1" />
            <stop offset="100%" style="stop-color:rgb(217,184,164);stop-opacity:1" />
        </linearGradient>
    </defs>
    <path fill="url(#grad1)" d="M709.967 885.625c-65.63 74.776-169.018 112.218-310.166 112.218h-6.276c-120.088 0-209.861-29.783-269.426-89.242-41.59-41.802-62.331-90.73-62.331-146.893 0-31.591 8.51-64.883 25.635-99.877l140.829-7.446c-13.828 33.824-20.741 64.032-20.741 90.411 0 45.1 12.338 81.264 37.016 108.495 24.464 28.293 58.82 42.44 102.962 42.44 105.41 0 158.06-61.694 158.06-185.184 0-59.672-23.4-101.475-70.201-125.407-34.037-17.019-84.349-25.528-150.616-25.528h-20.635c-6.806 0-19.57 1.383-38.292 4.043l1.171-126.364 52.439 5.318c66.585 0 116.364-9.892 149.444-29.677 41.802-25.527 62.65-69.351 62.65-131.575 0-40.738-12.338-73.925-37.122-99.453-25.528-24.783-58.714-37.121-99.452-37.121-38.292 0-69.351 12.338-93.284 37.121-24.783 24.784-37.122 56.268-37.122 94.56 0 16.168 5.956 42.228 17.763 77.967L99.528 326.244c-6.063-23.827-9.041-42.972-9.041-57.332 0-75.095 34.037-133.171 102.218-174.121 57.012-34.783 125.087-52.12 204.224-52.12 124.343 0 217.52 29.357 279.638 87.965 45.95 43.397 68.925 94.985 68.925 154.657 0 47.652-13.615 89.774-40.844 126.363-28.081 37.548-64.991 65.309-110.94 83.285 53.608 16.806 96.155 44.887 127.533 84.136 34.038 41.802 51.056 89.88 51.056 144.339 0 60.523-20.741 114.557-62.33 162.21Z"/>
</svg>