<svg xmlns="http://www.w3.org/2000/svg" width="816" height="1056">
    <defs>
        <linearGradient id="grad1" x1="0%" y1="0%" x2="0%" y2="100%">
            <stop offset="0%" style="stop-color:rgb(234,239,242);stop-opacity:1" />
            <stop offset="100%" style="stop-color:rgb(197,205,214);stop-opacity:1" />
        </linearGradient>
    </defs>
    <path fill="url(#grad1)" d="M584.365 593.319c-20.729 16.389-58.933 48.08-114.501 95.182l-103.105 93.663h378.016l1.194 223.576H56.9l1.195-135.123c35.706-40.698 92.469-98.98 170.612-174.844 77.382-74.669 133.928-132.952 169.526-174.845 60.67-70.22 92.903-126.331 96.484-168.115l3.799-47.102v-15.63c.869-34.838-9.551-66.204-31.148-93.988-24.42-30.389-57.523-45.584-99.307-45.584-46.885 0-83.786 19.102-110.702 57.414-23.335 33.102-34.947 74.453-34.947 123.944 0 47.97 10.853 99.849 32.451 155.525l-166.814-39.18c-13.132-35.599-19.753-74.669-19.753-117.323 0-88.453 33.97-158.673 101.803-210.552 61.754-47.862 138.161-71.848 229.437-71.848 95.399 0 175.821 19.644 241.157 58.824 78.035 46.887 117.106 115.044 117.106 204.583 0 92.035-57.847 185.807-173.434 281.423Z"/>
</svg>